<?xml version="1.0" encoding="UTF-8"?>
<!-- Generated by Pixelmator Pro 3.0.1 -->
<svg width="192" height="46" viewBox="0 0 192 46" xmlns="http://www.w3.org/2000/svg" xmlns:xlink="http://www.w3.org/1999/xlink">
    <path id="Path" fill="#ffffff" stroke="none" d="M 29.930809 12.834286 C 28.401506 6.939754 11.701889 6.078442 1.0928 11.446316 C 0.746148 11.620979 0.244827 11.98497 0.155494 12.44096 C 0.155494 12.44096 0.012828 13.347607 0.006165 13.390274 C -0.043171 13.715599 0.290155 13.648933 0.420818 13.568935 C 1.815449 12.727623 3.36475 11.96764 4.783388 11.540981 C 11.505899 9.513027 20.027035 9.443695 21.524336 13.839596 C 22.565641 16.902189 18.275072 19.4168 15.880463 20.560774 C 14.959148 21.002096 14.637826 21.408754 14.581828 21.858076 C 14.533825 22.255402 14.669828 22.839388 15.204473 23.628702 C 18.613728 28.667253 28.630831 35.935085 38.470612 38.473694 C 38.859936 38.575024 39.073261 38.524361 39.242592 38.436363 C 39.329254 38.388363 39.433254 38.315033 39.267925 38.228367 C 32.708073 34.812447 26.450888 29.036579 23.364288 24.572681 C 22.662971 23.55937 22.44031 22.883387 22.498974 22.338068 C 22.549641 21.844744 23.001627 21.435419 23.922941 21.003428 C 27.396198 19.378134 30.988111 16.926191 29.930809 12.834286 M 1.359466 31.716516 L 10.355261 31.716516 L 10.355261 22.723391 L 1.359466 22.723391 Z M 185.448547 22.016739 L 179.047363 19.916788 C 176.415421 19.048807 175.60878 18.666147 175.60878 17.664839 C 175.60878 16.868856 176.132767 16.136873 179.427353 16.136873 L 189.004471 16.136873 C 189.473785 16.136873 189.82045 15.998209 190.051117 15.56222 L 191.195084 13.392937 L 176.91008 13.394272 C 170.430237 13.394272 168.004959 15.419558 168.004959 18.232824 C 168.004959 19.858122 168.932938 22.02874 175.007462 24.020695 L 181.407318 26.123312 C 184.039246 26.991291 184.845901 27.359283 184.845901 28.359261 C 184.845901 29.157907 184.325912 29.889893 181.028656 29.889893 L 167.99295 29.888559 L 157.90918 13.392937 L 154.083939 13.392937 C 151.104004 13.392937 149.580048 14.216917 148.18808 16.487532 L 138.326965 32.635162 L 145.024155 32.635162 L 153.166626 18.235491 C 153.365295 17.886168 153.526627 17.8915 153.693283 17.8915 L 160.482452 29.888559 L 153.102631 29.888559 C 152.633301 29.888559 152.290649 30.028557 152.054657 30.463211 L 150.912018 32.633827 L 169.663589 32.635162 L 169.671585 32.636497 L 169.671585 32.635162 L 183.547256 32.635162 C 190.025772 32.635162 192.448395 30.608541 192.448395 27.795275 C 192.448395 26.167311 191.525742 24.010027 185.448547 22.016739 M 127.584549 26.123312 C 130.217819 26.991291 131.021805 27.359283 131.021805 28.359261 C 131.021805 29.228575 130.500488 29.889893 127.204559 29.889893 L 115.883492 29.888559 C 115.412834 29.888559 115.07151 30.028557 114.839516 30.463211 L 113.696869 32.633827 L 129.724503 32.635162 C 136.201691 32.635162 138.625626 30.608541 138.625626 27.795275 C 138.625626 26.167311 137.70166 24.010027 131.627121 22.016739 L 125.224609 19.916788 C 122.592667 19.048807 121.787354 18.666147 121.787354 17.664839 C 121.787354 16.868856 122.240677 16.136873 125.604599 16.136873 L 135.183044 16.136873 C 135.652359 16.136873 135.996353 15.998209 136.229691 15.56222 L 137.37233 13.392937 L 123.087326 13.394272 C 116.607475 13.394272 114.183525 15.419558 114.183525 18.232824 C 114.183525 19.858122 115.107506 22.02874 121.183365 24.020695 L 127.584549 26.123312 M 99.509201 16.136873 L 109.295639 16.136873 C 109.767632 16.136873 110.111626 15.998209 110.346283 15.56222 L 111.488922 13.392937 L 97.509247 13.392937 C 91.288055 13.392937 88.265457 15.648886 88.265457 20.286112 L 88.265457 25.596659 C 88.265457 30.536543 91.377388 32.632492 97.509247 32.632492 L 109.643631 32.633827 C 110.114288 32.633827 110.45961 32.493832 110.691612 32.059174 L 111.834251 29.888559 L 99.506531 29.888559 C 96.279938 29.888559 95.12397 28.789917 95.12397 26.617968 L 95.12397 24.000694 L 107.902336 24.002028 C 108.374329 24.002028 108.718323 23.860697 108.948982 23.427374 L 110.092957 21.256758 L 95.12397 21.259424 L 95.12397 19.664793 C 95.12397 17.830168 95.538628 16.136873 99.509201 16.136873 M 43.935814 16.136873 L 53.722256 16.136873 C 54.192913 16.136873 54.536903 15.998209 54.771564 15.56222 L 55.914207 13.392937 L 41.934528 13.392937 C 35.712006 13.392937 32.68541 15.648886 32.68541 20.286112 L 32.68541 25.596659 C 32.68541 30.536543 35.800003 32.632492 41.938526 32.632492 L 54.070248 32.633827 C 54.542236 32.633827 54.88356 32.493832 55.11689 32.059174 L 56.258198 29.888559 L 43.933151 29.888559 C 40.703892 29.888559 39.550583 28.789917 39.550583 26.617968 L 39.550583 24.000694 L 52.327621 24.002028 C 52.796944 24.002028 53.1436 23.860697 53.375595 23.427374 L 54.519573 21.256758 L 39.550583 21.259424 L 39.550583 19.664793 C 39.550583 17.830168 39.966572 16.136873 43.935814 16.136873 M 63.088703 13.392937 C 67.17128 13.392937 68.079254 14.023592 69.637894 15.838217 L 79.648323 27.573946 C 79.790993 27.739275 79.872322 27.784607 80.033646 27.784607 L 80.033646 13.392937 L 83.900223 13.392937 L 83.898895 32.633827 L 79.757652 32.633827 C 77.019051 32.629829 75.884415 32.4165 74.219116 30.459213 L 63.89402 18.342154 C 63.754025 18.17016 63.663357 18.123495 63.504696 18.123495 L 63.507366 32.633827 L 59.640785 32.635162 L 59.640785 13.395607 L 63.088703 13.392937"/>
</svg>
